<svg width="250" viewBox="0 0 210 40" xmlns="http://www.w3.org/2000/svg">
  <path d="M209.056 0h-40.005v40h40.005V0Z" fill="#D20A11"/>
  <path d="M49.2004 39.2888V.784576h5.3652V39.2888h-5.3652ZM55.7229 34.0281h5.1817v5.2608h-5.1817v-5.2608ZM55.7229 15.5874h4.8374v5.2607h-4.8374v-5.2607ZM55.7229.784576h5.0829V6.04528h-5.0829V.784576ZM143.73 39.2775h5.212V.770508h-5.212V39.2775ZM7.35201 0c3.04519.169336 6.27109 1.75827 6.27109 6.57588v8.21282H8.26078V7.06696c0-1.49016-.31327-2.00946-.91159-2.15904V0h.00282Zm0 35.1429c.59832-.1496.91159-.6717.91159-2.1619v-4.033c0-2.1647-1.42525-4.3265-2.60495-6.0001-.4431-.6887-.98497-1.3265-1.47605-2.0151C2.11388 18.1331 0 15.229 0 12.0821V6.57588C0 1.78085 3.20045.183447 6.19206.00282227V4.93332c-.55317.18345-.83257.72815-.83257 2.13082v4.72166c0 .6378.49107 1.6228 1.27848 2.8505.78742 1.2305 1.82037 2.6557 2.80252 4.081 2.06591 2.9041 4.17981 5.9521 4.17981 7.9672v6.7876c0 4.8148-3.2259 6.3614-6.27111 6.5251v-4.8543h.00282Zm-1.15995 4.8543C3.20045 39.8222 0 38.27 0 33.4749v-8.9522h5.35949v8.4583c0 1.4027.27658 1.9474.83257 2.1308v4.8854ZM86.4348 0c3.0452.169336 6.2711 1.75827 6.2711 6.57588v8.21282h-5.3595V7.06696c0-1.49016-.3133-2.00946-.9116-2.15904V0Zm0 35.1429c.5983-.1496.9116-.6717.9116-2.1619v-4.033c0-2.1647-1.4281-4.3265-2.605-6.0001-.4431-.6887-.985-1.3265-1.476-2.0151-2.0659-2.8026-4.1798-5.7038-4.1798-8.8507V6.57588c0-4.79503 3.2004-6.392433 6.192-6.57305773V4.93332c-.5531.18345-.8325.72815-.8325 2.13082v4.72166c0 .6378.4939 1.6228 1.2785 2.8505.7874 1.2305 1.8203 2.6557 2.8025 4.081 2.0659 2.9041 4.1798 5.9521 4.1798 7.9672v6.7876c0 4.8148-3.2259 6.3614-6.2711 6.5251v-4.8543Zm-1.16 4.8543c-2.9916-.175-6.192-1.7301-6.192-6.5223v-8.9522h5.3595v8.4583c0 1.4027.2765 1.9474.8325 2.1308v4.8854ZM23.7353 35.1373c.5814-.1609.8834-.6887.8834-2.1534V.770508h5.3595V33.4749c0 4.8007-3.2061 6.3502-6.2429 6.5223v-4.8599ZM22.5782 40c-3.0029-.1665-6.2203-1.7159-6.2203-6.5251V.770508h5.3595V32.981c0 1.4281.2879 1.9672.8608 2.1393V40ZM118.357 35.1373c.582-.1609.884-.6887.884-2.1534V.770508h5.359V33.4749c0 4.8007-3.206 6.3502-6.243 6.5223v-4.8599ZM117.2 40c-3-.1665-6.22-1.7159-6.22-6.5251V.770508h5.359V32.981c0 1.4281.286 1.9672.861 2.1393V40ZM68.0843 39.2775h-5.3594V.770508h5.3961L68.0843 39.2775ZM69.2781 21.6186v-5.0265c1.4139-.1298 1.7103-1.0668 1.7103-2.2945V7.3605c0-1.33211-.6435-1.74416-1.7103-1.76956V.770508h.333c4.1318 0 6.7368 1.622802 6.7368 6.688772v5.41032c0 2.8025-.6887 5.1619-4.6709 5.8026 2.1647.3922 4.2786 1.3772 4.4733 4.7216.2963 5.114 0 10.4734.8382 15.8837h-5.3623c-.4403-2.3114-.5899-4.8684-.6378-7.4254-.0508-2.5598 0-5.0659 0-7.3294 0-1.7131-.4318-2.6247-1.7103-2.9041ZM158.025 39.9972c-2.992-.1778-6.184-1.7329-6.184-6.5223V6.57587c0-4.79221 3.192-6.389615 6.184-6.57306238V4.93895c-.551.18627-.824.73097-.824 2.12799V32.981c0 1.397.276 1.9417.824 2.128v4.8882ZM159.182 0c3.048.166514 6.279 1.75263 6.279 6.57588V33.4749c0 4.8204-3.231 6.3642-6.279 6.5251v-4.8543c.606-.1468.923-.6661.923-2.1647V7.06696c0-1.4958-.317-2.01792-.923-2.16186V0ZM132.641 39.2775h-5.365V.770508h5.365V39.2775ZM133.795 39.2775v-4.8204c1.177-.0141 1.742-.3472 1.742-2.7037V8.29466c0-2.35659-.565-2.68962-1.742-2.70373V.773315c5.001.059268 7.101 2.065905 7.101 8.751855V32.1964c0 3.7367-2.162 7.0811-6.195 7.0811h-.906ZM105.691.770508h3.271V6.03404h-3.271V.770508ZM97.9666 6.03404h-3.3162V.770508h3.3162V6.03404ZM99.1264 39.2775V6.03404L99.1235.770508h5.4105V39.2775h-5.4076ZM38.0724.770508V39.2775h-5.3595V.770508h5.3595ZM46.3331 16.6542c0 5.7828-2.4469 7.9419-7.1036 7.9955v-4.9051c.2738-.0197.539-.0564.7592-.1383.5419-.1975.9342-.5898.985-1.4252V9.13288c0-2.62753-.5899-3.39519-1.7442-3.54195V.801544c4.9502.290696 7.1036 2.712196 7.1036 7.543926v8.30873Z" fill="#fff"/>
</svg>
